<?xml version="1.0" ?><svg id="Layer_1" style="enable-background:new 0 0 30 30;" version="1.1" viewBox="0 0 30 30" xml:space="preserve" xmlns="http://www.w3.org/2000/svg" xmlns:xlink="http://www.w3.org/1999/xlink" width="25px" height="25px"><style type="text/css">
	.st0{fill:#e24141;}
	.st1{fill:#e24141;}
	.st2{fill:#e24141;}
	.st3{fill:#e24141;}
	.st4{fill:#e24141;}
	.st5{fill:#e24141;}
	.st6{fill:#e24141;}
	.st7{fill:#e24141;}
	.st8{fill:#e24141;}
</style><path class="st4" d="M25.9,8.6l-0.8-0.8c-1.2-1.2-2.9-1.5-4.5-0.9l-7.9,3L9.3,6.4c-0.5-0.5-1.2-1-1.8-1.3L5.6,4.2  C5,3.9,4.4,4,3.9,4.4l0,0C3.5,4.9,3.4,5.5,3.7,6.1l0.9,1.8c0.3,0.7,0.8,1.3,1.3,1.8l3.4,3.4l-3,7.9c-0.6,1.5-0.2,3.3,0.9,4.5  l0.8,0.8l5.8-8.7l5,4.2l-0.7,2.8c-0.2,0.7,0,1.5,0.6,2l1.4,1.4l2.2-5.2l5.2-2.2l-1.4-1.4c-0.5-0.5-1.3-0.7-2-0.6l-2.8,0.7l-4.2-5  L25.9,8.6z"/></svg>